<svg aria-roledescription="timeline" role="graphics-document document" viewBox="0 -61 1790 482" style="max-width: 1790px; background-color: white;" xmlns:xlink="http://www.w3.org/1999/xlink" xmlns="http://www.w3.org/2000/svg" width="100%" id="my-svg"><style>#my-svg{font-family:"trebuchet ms",verdana,arial,sans-serif;font-size:16px;fill:#000000;}#my-svg .error-icon{fill:#552222;}#my-svg .error-text{fill:#552222;stroke:#552222;}#my-svg .edge-thickness-normal{stroke-width:2px;}#my-svg .edge-thickness-thick{stroke-width:3.5px;}#my-svg .edge-pattern-solid{stroke-dasharray:0;}#my-svg .edge-pattern-dashed{stroke-dasharray:3;}#my-svg .edge-pattern-dotted{stroke-dasharray:2;}#my-svg .marker{fill:#666;stroke:#666;}#my-svg .marker.cross{stroke:#666;}#my-svg svg{font-family:"trebuchet ms",verdana,arial,sans-serif;font-size:16px;}#my-svg .edge{stroke-width:3;}#my-svg .section--1 rect,#my-svg .section--1 path,#my-svg .section--1 circle,#my-svg .section--1 path{fill:#555;}#my-svg .section--1 text{fill:#F4F4F4;}#my-svg .node-icon--1{font-size:40px;color:#F4F4F4;}#my-svg .section-edge--1{stroke:#555;}#my-svg .edge-depth--1{stroke-width:17;}#my-svg .section--1 line{stroke:#aaaaaa;stroke-width:3;}#my-svg .lineWrapper line{stroke:#F4F4F4;}#my-svg .disabled,#my-svg .disabled circle,#my-svg .disabled text{fill:lightgray;}#my-svg .disabled text{fill:#efefef;}#my-svg .section-0 rect,#my-svg .section-0 path,#my-svg .section-0 circle,#my-svg .section-0 path{fill:#F4F4F4;}#my-svg .section-0 text{fill:#333;}#my-svg .node-icon-0{font-size:40px;color:#333;}#my-svg .section-edge-0{stroke:#F4F4F4;}#my-svg .edge-depth-0{stroke-width:14;}#my-svg .section-0 line{stroke:#0b0b0b;stroke-width:3;}#my-svg .lineWrapper line{stroke:#333;}#my-svg .disabled,#my-svg .disabled circle,#my-svg .disabled text{fill:lightgray;}#my-svg .disabled text{fill:#efefef;}#my-svg .section-1 rect,#my-svg .section-1 path,#my-svg .section-1 circle,#my-svg .section-1 path{fill:#555;}#my-svg .section-1 text{fill:#F4F4F4;}#my-svg .node-icon-1{font-size:40px;color:#F4F4F4;}#my-svg .section-edge-1{stroke:#555;}#my-svg .edge-depth-1{stroke-width:11;}#my-svg .section-1 line{stroke:#aaaaaa;stroke-width:3;}#my-svg .lineWrapper line{stroke:#F4F4F4;}#my-svg .disabled,#my-svg .disabled circle,#my-svg .disabled text{fill:lightgray;}#my-svg .disabled text{fill:#efefef;}#my-svg .section-2 rect,#my-svg .section-2 path,#my-svg .section-2 circle,#my-svg .section-2 path{fill:#BBB;}#my-svg .section-2 text{fill:#333;}#my-svg .node-icon-2{font-size:40px;color:#333;}#my-svg .section-edge-2{stroke:#BBB;}#my-svg .edge-depth-2{stroke-width:8;}#my-svg .section-2 line{stroke:#444444;stroke-width:3;}#my-svg .lineWrapper line{stroke:#333;}#my-svg .disabled,#my-svg .disabled circle,#my-svg .disabled text{fill:lightgray;}#my-svg .disabled text{fill:#efefef;}#my-svg .section-3 rect,#my-svg .section-3 path,#my-svg .section-3 circle,#my-svg .section-3 path{fill:#777;}#my-svg .section-3 text{fill:#333;}#my-svg .node-icon-3{font-size:40px;color:#333;}#my-svg .section-edge-3{stroke:#777;}#my-svg .edge-depth-3{stroke-width:5;}#my-svg .section-3 line{stroke:#888888;stroke-width:3;}#my-svg .lineWrapper line{stroke:#333;}#my-svg .disabled,#my-svg .disabled circle,#my-svg .disabled text{fill:lightgray;}#my-svg .disabled text{fill:#efefef;}#my-svg .section-4 rect,#my-svg .section-4 path,#my-svg .section-4 circle,#my-svg .section-4 path{fill:#999;}#my-svg .section-4 text{fill:#333;}#my-svg .node-icon-4{font-size:40px;color:#333;}#my-svg .section-edge-4{stroke:#999;}#my-svg .edge-depth-4{stroke-width:2;}#my-svg .section-4 line{stroke:#666666;stroke-width:3;}#my-svg .lineWrapper line{stroke:#333;}#my-svg .disabled,#my-svg .disabled circle,#my-svg .disabled text{fill:lightgray;}#my-svg .disabled text{fill:#efefef;}#my-svg .section-5 rect,#my-svg .section-5 path,#my-svg .section-5 circle,#my-svg .section-5 path{fill:#DDD;}#my-svg .section-5 text{fill:#333;}#my-svg .node-icon-5{font-size:40px;color:#333;}#my-svg .section-edge-5{stroke:#DDD;}#my-svg .edge-depth-5{stroke-width:-1;}#my-svg .section-5 line{stroke:#222222;stroke-width:3;}#my-svg .lineWrapper line{stroke:#333;}#my-svg .disabled,#my-svg .disabled circle,#my-svg .disabled text{fill:lightgray;}#my-svg .disabled text{fill:#efefef;}#my-svg .section-6 rect,#my-svg .section-6 path,#my-svg .section-6 circle,#my-svg .section-6 path{fill:#FFF;}#my-svg .section-6 text{fill:#333;}#my-svg .node-icon-6{font-size:40px;color:#333;}#my-svg .section-edge-6{stroke:#FFF;}#my-svg .edge-depth-6{stroke-width:-4;}#my-svg .section-6 line{stroke:#000000;stroke-width:3;}#my-svg .lineWrapper line{stroke:#333;}#my-svg .disabled,#my-svg .disabled circle,#my-svg .disabled text{fill:lightgray;}#my-svg .disabled text{fill:#efefef;}#my-svg .section-7 rect,#my-svg .section-7 path,#my-svg .section-7 circle,#my-svg .section-7 path{fill:#DDD;}#my-svg .section-7 text{fill:#333;}#my-svg .node-icon-7{font-size:40px;color:#333;}#my-svg .section-edge-7{stroke:#DDD;}#my-svg .edge-depth-7{stroke-width:-7;}#my-svg .section-7 line{stroke:#222222;stroke-width:3;}#my-svg .lineWrapper line{stroke:#333;}#my-svg .disabled,#my-svg .disabled circle,#my-svg .disabled text{fill:lightgray;}#my-svg .disabled text{fill:#efefef;}#my-svg .section-8 rect,#my-svg .section-8 path,#my-svg .section-8 circle,#my-svg .section-8 path{fill:#BBB;}#my-svg .section-8 text{fill:#333;}#my-svg .node-icon-8{font-size:40px;color:#333;}#my-svg .section-edge-8{stroke:#BBB;}#my-svg .edge-depth-8{stroke-width:-10;}#my-svg .section-8 line{stroke:#444444;stroke-width:3;}#my-svg .lineWrapper line{stroke:#333;}#my-svg .disabled,#my-svg .disabled circle,#my-svg .disabled text{fill:lightgray;}#my-svg .disabled text{fill:#efefef;}#my-svg .section-9 rect,#my-svg .section-9 path,#my-svg .section-9 circle,#my-svg .section-9 path{fill:#999;}#my-svg .section-9 text{fill:#333;}#my-svg .node-icon-9{font-size:40px;color:#333;}#my-svg .section-edge-9{stroke:#999;}#my-svg .edge-depth-9{stroke-width:-13;}#my-svg .section-9 line{stroke:#666666;stroke-width:3;}#my-svg .lineWrapper line{stroke:#333;}#my-svg .disabled,#my-svg .disabled circle,#my-svg .disabled text{fill:lightgray;}#my-svg .disabled text{fill:#efefef;}#my-svg .section-10 rect,#my-svg .section-10 path,#my-svg .section-10 circle,#my-svg .section-10 path{fill:#777;}#my-svg .section-10 text{fill:#333;}#my-svg .node-icon-10{font-size:40px;color:#333;}#my-svg .section-edge-10{stroke:#777;}#my-svg .edge-depth-10{stroke-width:-16;}#my-svg .section-10 line{stroke:#888888;stroke-width:3;}#my-svg .lineWrapper line{stroke:#333;}#my-svg .disabled,#my-svg .disabled circle,#my-svg .disabled text{fill:lightgray;}#my-svg .disabled text{fill:#efefef;}#my-svg .section-root rect,#my-svg .section-root path,#my-svg .section-root circle{fill:hsl(0, 0%, 70.6862745098%);}#my-svg .section-root text{fill:#333;}#my-svg .icon-container{height:100%;display:flex;justify-content:center;align-items:center;}#my-svg .edge{fill:none;}#my-svg .eventWrapper{filter:brightness(120%);}#my-svg :root{--mermaid-font-family:"trebuchet ms",verdana,arial,sans-serif;}</style><g/><g/><defs><marker orient="auto" markerHeight="4" markerWidth="6" refY="2" refX="5" id="arrowhead"><path d="M 0,0 V 4 L6,2 Z"/></marker></defs><g transform="translate(100, 50)" class="taskWrapper"><g class="timeline-node section--1"><g><path d="M0 62.8 v-57.8 q0,-5 5,-5 h180 q5,0 5,5 v62.8 H0 Z" class="node-bkg node-undefined" id="node-undefined"/><line y2="67.8" x2="190" y1="67.8" x1="0" class="node-line--1"/></g><g transform="translate(95, 10)"><text text-anchor="middle" dominant-baseline="middle" alignment-baseline="middle" dy="1em"><tspan dy="1em" x="0">1974</tspan></text></g></g></g><g class="lineWrapper"><line stroke-dasharray="5,5" marker-end="url(#arrowhead)" stroke="black" stroke-width="2" y2="370.99999847412107" x2="195" y1="117.8" x1="195"/></g><g transform="translate(100, 250)" class="eventWrapper"><g class="timeline-node section--1"><g><path d="M0 45 v-40 q0,-5 5,-5 h180 q5,0 5,5 v45 H0 Z" class="node-bkg node-undefined" id="node-undefined"/><line y2="50" x2="190" y1="50" x1="0" class="node-line--1"/></g><g transform="translate(95, 10)"><text text-anchor="middle" dominant-baseline="middle" alignment-baseline="middle" dy="1em"><tspan dy="1em" x="0">ISO   3166   1ed</tspan></text></g></g></g><g transform="translate(300, 50)" class="taskWrapper"><g class="timeline-node section--1"><g><path d="M0 62.8 v-57.8 q0,-5 5,-5 h180 q5,0 5,5 v62.8 H0 Z" class="node-bkg node-undefined" id="node-undefined"/><line y2="67.8" x2="190" y1="67.8" x1="0" class="node-line--1"/></g><g transform="translate(95, 10)"><text text-anchor="middle" dominant-baseline="middle" alignment-baseline="middle" dy="1em"><tspan dy="1em" x="0">1981</tspan></text></g></g></g><g class="lineWrapper"><line stroke-dasharray="5,5" marker-end="url(#arrowhead)" stroke="black" stroke-width="2" y2="370.99999847412107" x2="395" y1="117.8" x1="395"/></g><g transform="translate(300, 250)" class="eventWrapper"><g class="timeline-node section--1"><g><path d="M0 45 v-40 q0,-5 5,-5 h180 q5,0 5,5 v45 H0 Z" class="node-bkg node-undefined" id="node-undefined"/><line y2="50" x2="190" y1="50" x1="0" class="node-line--1"/></g><g transform="translate(95, 10)"><text text-anchor="middle" dominant-baseline="middle" alignment-baseline="middle" dy="1em"><tspan dy="1em" x="0">ISO   3166   2ed</tspan></text></g></g></g><g transform="translate(500, 50)" class="taskWrapper"><g class="timeline-node section--1"><g><path d="M0 62.8 v-57.8 q0,-5 5,-5 h180 q5,0 5,5 v62.8 H0 Z" class="node-bkg node-undefined" id="node-undefined"/><line y2="67.8" x2="190" y1="67.8" x1="0" class="node-line--1"/></g><g transform="translate(95, 10)"><text text-anchor="middle" dominant-baseline="middle" alignment-baseline="middle" dy="1em"><tspan dy="1em" x="0">1988</tspan></text></g></g></g><g class="lineWrapper"><line stroke-dasharray="5,5" marker-end="url(#arrowhead)" stroke="black" stroke-width="2" y2="370.99999847412107" x2="595" y1="117.8" x1="595"/></g><g transform="translate(500, 250)" class="eventWrapper"><g class="timeline-node section--1"><g><path d="M0 45 v-40 q0,-5 5,-5 h180 q5,0 5,5 v45 H0 Z" class="node-bkg node-undefined" id="node-undefined"/><line y2="50" x2="190" y1="50" x1="0" class="node-line--1"/></g><g transform="translate(95, 10)"><text text-anchor="middle" dominant-baseline="middle" alignment-baseline="middle" dy="1em"><tspan dy="1em" x="0">ISO   3166   3ed</tspan></text></g></g></g><g transform="translate(700, 50)" class="taskWrapper"><g class="timeline-node section--1"><g><path d="M0 62.8 v-57.8 q0,-5 5,-5 h180 q5,0 5,5 v62.8 H0 Z" class="node-bkg node-undefined" id="node-undefined"/><line y2="67.8" x2="190" y1="67.8" x1="0" class="node-line--1"/></g><g transform="translate(95, 10)"><text text-anchor="middle" dominant-baseline="middle" alignment-baseline="middle" dy="1em"><tspan dy="1em" x="0">1993</tspan></text></g></g></g><g class="lineWrapper"><line stroke-dasharray="5,5" marker-end="url(#arrowhead)" stroke="black" stroke-width="2" y2="370.99999847412107" x2="795" y1="117.8" x1="795"/></g><g transform="translate(700, 250)" class="eventWrapper"><g class="timeline-node section--1"><g><path d="M0 45 v-40 q0,-5 5,-5 h180 q5,0 5,5 v45 H0 Z" class="node-bkg node-undefined" id="node-undefined"/><line y2="50" x2="190" y1="50" x1="0" class="node-line--1"/></g><g transform="translate(95, 10)"><text text-anchor="middle" dominant-baseline="middle" alignment-baseline="middle" dy="1em"><tspan dy="1em" x="0">ISO   3166   4ed</tspan></text></g></g></g><g transform="translate(900, 50)" class="taskWrapper"><g class="timeline-node section--1"><g><path d="M0 62.8 v-57.8 q0,-5 5,-5 h180 q5,0 5,5 v62.8 H0 Z" class="node-bkg node-undefined" id="node-undefined"/><line y2="67.8" x2="190" y1="67.8" x1="0" class="node-line--1"/></g><g transform="translate(95, 10)"><text text-anchor="middle" dominant-baseline="middle" alignment-baseline="middle" dy="1em"><tspan dy="1em" x="0">1997</tspan></text></g></g></g><g class="lineWrapper"><line stroke-dasharray="5,5" marker-end="url(#arrowhead)" stroke="black" stroke-width="2" y2="370.99999847412107" x2="995" y1="117.8" x1="995"/></g><g transform="translate(900, 250)" class="eventWrapper"><g class="timeline-node section--1"><g><path d="M0 60.39999847412109 v-55.39999847412109 q0,-5 5,-5 h180 q5,0 5,5 v60.39999847412109 H0 Z" class="node-bkg node-undefined" id="node-undefined"/><line y2="65.39999847412109" x2="190" y1="65.39999847412109" x1="0" class="node-line--1"/></g><g transform="translate(95, 10)"><text text-anchor="middle" dominant-baseline="middle" alignment-baseline="middle" dy="1em"><tspan dy="1em" x="0">ISO   3166-1</tspan><tspan dy="1.1em" x="0">(countries)   1ed</tspan></text></g></g></g><g transform="translate(1100, 50)" class="taskWrapper"><g class="timeline-node section--1"><g><path d="M0 62.8 v-57.8 q0,-5 5,-5 h180 q5,0 5,5 v62.8 H0 Z" class="node-bkg node-undefined" id="node-undefined"/><line y2="67.8" x2="190" y1="67.8" x1="0" class="node-line--1"/></g><g transform="translate(95, 10)"><text text-anchor="middle" dominant-baseline="middle" alignment-baseline="middle" dy="1em"><tspan dy="1em" x="0">2006</tspan></text></g></g></g><g class="lineWrapper"><line stroke-dasharray="5,5" marker-end="url(#arrowhead)" stroke="black" stroke-width="2" y2="370.99999847412107" x2="1195" y1="117.8" x1="1195"/></g><g transform="translate(1100, 250)" class="eventWrapper"><g class="timeline-node section--1"><g><path d="M0 45 v-40 q0,-5 5,-5 h180 q5,0 5,5 v45 H0 Z" class="node-bkg node-undefined" id="node-undefined"/><line y2="50" x2="190" y1="50" x1="0" class="node-line--1"/></g><g transform="translate(95, 10)"><text text-anchor="middle" dominant-baseline="middle" alignment-baseline="middle" dy="1em"><tspan dy="1em" x="0">ISO   3166-1   2ed</tspan></text></g></g></g><g transform="translate(1300, 50)" class="taskWrapper"><g class="timeline-node section--1"><g><path d="M0 62.8 v-57.8 q0,-5 5,-5 h180 q5,0 5,5 v62.8 H0 Z" class="node-bkg node-undefined" id="node-undefined"/><line y2="67.8" x2="190" y1="67.8" x1="0" class="node-line--1"/></g><g transform="translate(95, 10)"><text text-anchor="middle" dominant-baseline="middle" alignment-baseline="middle" dy="1em"><tspan dy="1em" x="0">2013</tspan></text></g></g></g><g class="lineWrapper"><line stroke-dasharray="5,5" marker-end="url(#arrowhead)" stroke="black" stroke-width="2" y2="370.99999847412107" x2="1395" y1="117.8" x1="1395"/></g><g transform="translate(1300, 250)" class="eventWrapper"><g class="timeline-node section--1"><g><path d="M0 45 v-40 q0,-5 5,-5 h180 q5,0 5,5 v45 H0 Z" class="node-bkg node-undefined" id="node-undefined"/><line y2="50" x2="190" y1="50" x1="0" class="node-line--1"/></g><g transform="translate(95, 10)"><text text-anchor="middle" dominant-baseline="middle" alignment-baseline="middle" dy="1em"><tspan dy="1em" x="0">ISO   3166-1   3ed</tspan></text></g></g></g><g transform="translate(1500, 50)" class="taskWrapper"><g class="timeline-node section--1"><g><path d="M0 62.8 v-57.8 q0,-5 5,-5 h180 q5,0 5,5 v62.8 H0 Z" class="node-bkg node-undefined" id="node-undefined"/><line y2="67.8" x2="190" y1="67.8" x1="0" class="node-line--1"/></g><g transform="translate(95, 10)"><text text-anchor="middle" dominant-baseline="middle" alignment-baseline="middle" dy="1em"><tspan dy="1em" x="0">2020</tspan></text></g></g></g><g class="lineWrapper"><line stroke-dasharray="5,5" marker-end="url(#arrowhead)" stroke="black" stroke-width="2" y2="370.99999847412107" x2="1595" y1="117.8" x1="1595"/></g><g transform="translate(1500, 250)" class="eventWrapper"><g class="timeline-node section--1"><g><path d="M0 45 v-40 q0,-5 5,-5 h180 q5,0 5,5 v45 H0 Z" class="node-bkg node-undefined" id="node-undefined"/><line y2="50" x2="190" y1="50" x1="0" class="node-line--1"/></g><g transform="translate(95, 10)"><text text-anchor="middle" dominant-baseline="middle" alignment-baseline="middle" dy="1em"><tspan dy="1em" x="0">ISO   3166-1   4ed</tspan></text></g></g></g><text y="20" font-weight="bold" font-size="4ex" x="745">🌐 International Country Codes Timeline</text><g class="lineWrapper"><line marker-end="url(#arrowhead)" stroke="black" stroke-width="4" y2="167.8" x2="1740" y1="167.8" x1="50"/></g></svg>