<?xml version="1.0" encoding="UTF-8" standalone="no"?>
<!-- Created with Grafika (https://www.grafika.cc/) -->

<svg
   width="512"
   height="512"
   viewBox="0 0 512 512"
   preserveAspectRatio="xMidYMid"
   version="1.1"
   id="svg3"
   sodipodi:docname="Devy.svg"
   inkscape:version="1.4.4 (dcaf3e7d9e, 2026-05-05)"
   inkscape:export-filename="Devy.png"
   inkscape:export-xdpi="96"
   inkscape:export-ydpi="96"
   xmlns:inkscape="http://www.inkscape.org/namespaces/inkscape"
   xmlns:sodipodi="http://sodipodi.sourceforge.net/DTD/sodipodi-0.dtd"
   xmlns="http://www.w3.org/2000/svg"
   xmlns:svg="http://www.w3.org/2000/svg">
  <sodipodi:namedview
     id="namedview3"
     pagecolor="#ffffff"
     bordercolor="#000000"
     borderopacity="0.25"
     inkscape:showpageshadow="2"
     inkscape:pageopacity="0.0"
     inkscape:pagecheckerboard="true"
     inkscape:deskcolor="#d1d1d1"
     inkscape:zoom="1.0987458"
     inkscape:cx="234.35812"
     inkscape:cy="266.21262"
     inkscape:window-width="1488"
     inkscape:window-height="910"
     inkscape:window-x="20"
     inkscape:window-y="20"
     inkscape:window-maximized="0"
     inkscape:current-layer="svg3" />
  <defs
     id="defs2">
    <filter
       id="filter_1"
       style="color-interpolation-filters:sRGB"
       primitiveUnits="userSpaceOnUse"
       x="-0.15669276"
       y="-0.26859306"
       width="1.3133855"
       height="1.5371861">
      <feGaussianBlur
         in="SourceAlpha"
         stdDeviation="9.76"
         id="feGaussianBlur1" />
      <feOffset
         dx="0"
         dy="0"
         id="feOffset1" />
      <feColorMatrix
         type="matrix"
         values="0 0 0 0 0.96 0 0 0 0 0.96 0 0 0 0 0.07 0 0 0 1 0"
         result="dropShadow_1"
         id="feColorMatrix1" />
      <feComposite
         in="SourceGraphic"
         in2="dropShadow_1"
         operator="over"
         result="Layer1"
         id="feComposite1" />
    </filter>
    <filter
       id="filter_2"
       style="color-interpolation-filters:sRGB"
       primitiveUnits="userSpaceOnUse"
       x="-0.26148695"
       y="-0.51811547"
       width="1.5229739"
       height="2.0362309">
      <feGaussianBlur
         in="SourceAlpha"
         stdDeviation="9.76"
         id="feGaussianBlur2" />
      <feOffset
         dx="0"
         dy="0"
         id="feOffset2" />
      <feColorMatrix
         type="matrix"
         values="0 0 0 0 0.96 0 0 0 0 0.96 0 0 0 0 0.07 0 0 0 1 0"
         result="dropShadow_1"
         id="feColorMatrix2" />
      <feComposite
         in="SourceGraphic"
         in2="dropShadow_1"
         operator="over"
         result="Layer1"
         id="feComposite2" />
    </filter>
  </defs>
  <circle
     style="opacity:1;fill:#1a1a1a;stroke:#f2f2f2;stroke-width:20"
     id="path4"
     cx="255.74614"
     cy="255.74614"
     r="229.35242" />
  <g
     transform="matrix(2.5958262,0,0,2.5958262,255.84614,240.8274)"
     style="display:inline;filter:url(#filter_1)"
     id="g2">
    <path
       d="m -42.76,49.45 q -6.08,-0.1 -10.55,-1.81 -4.44,-1.69 -6.86,-5.25 -2.39,-3.54 -2.39,-8.84 V 18.86 q 0,-3.4 -1.39,-5.45 -1.39,-2.05 -4.1,-3 -2.69,-0.95 -6.69,-0.95 v -7.3 q 4,-0.1 6.69,-1.01 2.71,-0.9 4.1,-2.95 1.39,-2.05 1.39,-5.35 v -14.79 q 0,-5.3 2.49,-8.79 2.52,-3.52 7.01,-5.27 4.51,-1.76 10.3,-1.76 v 7.2 q -3.39,0.1 -5.91,1.1 -2.49,1 -3.83,3 -1.34,2 -1.34,5.3 v 14.4 q 0,5.11 -2.71,8.16 -2.69,3.05 -8.21,4.05 v 0.61 q 5.62,0.98 8.26,4.03 2.66,3.05 2.66,8.15 v 14.7 q 0,3.2 1.29,5.25 1.29,2.05 3.78,3 2.52,0.96 6.01,1.05 z m 10.41,-21.2 q 0,-3.71 1.78,-5.2 1.81,-1.51 4.33,-1.51 2.58,0 4.44,1.51 1.85,1.49 1.85,5.2 0,3.59 -1.85,5.2 -1.86,1.59 -4.44,1.59 -2.52,0 -4.33,-1.59 -1.78,-1.61 -1.78,-5.2 z m 26.2,0 q 0,-3.71 1.78,-5.2 1.81,-1.51 4.32,-1.51 2.59,0 4.45,1.51 1.85,1.49 1.85,5.2 0,3.59 -1.85,5.2 -1.86,1.59 -4.45,1.59 -2.51,0 -4.32,-1.59 -1.78,-1.61 -1.78,-5.2 z m 26.1,0 q 0,-3.71 1.78,-5.2 1.81,-1.51 4.32,-1.51 2.59,0 4.44,1.51 1.86,1.49 1.86,5.2 0,3.59 -1.86,5.2 -1.85,1.59 -4.44,1.59 -2.51,0 -4.32,-1.59 -1.78,-1.61 -1.78,-5.2 z m 22.8,13.99 q 3.49,-0.09 5.93,-1.09 2.47,-1.01 3.81,-3.06 1.37,-2.05 1.37,-5.25 v -14.5 q 0,-5.1 2.68,-8.13 2.71,-3.05 8.21,-4.05 V 5.55 q -5.5,-1 -8.21,-4.05 -2.68,-3.06 -2.68,-8.16 v -14.6 q 0,-3.29 -1.32,-5.3 -1.3,-2 -3.74,-3 -2.44,-1 -6.05,-1 v -7.2 q 6.2,0 10.59,1.76 4.4,1.75 6.79,5.27 2.42,3.49 2.42,8.89 v 14.6 q 0,3.39 1.39,5.44 1.42,2.05 4.15,3 2.76,0.96 6.66,0.96 v 7.3 q -3.9,0 -6.66,0.95 -2.73,0.95 -4.15,2.95 -1.39,1.98 -1.39,5.4 v 14.89 q 0,5.3 -2.52,8.79 -2.49,3.51 -6.93,5.25 -4.44,1.76 -10.35,1.76 z"
       fill="#4fff00"
       id="path2" />
  </g>
  <g
     transform="matrix(2.4644975,0,0,2.4644975,254.75956,204.86847)"
     style="display:inline;filter:url(#filter_2)"
     id="g3">
    <path
       d="M -15,13.96 -44.82,0.85 V -2.31 L -15,-17.18 v 4.93 L -38.87,-0.98 -15,9.02 Z M 11.15,-23.91 -5.7,21.3 h -5.44 L 5.69,-23.91 Z M 14.94,9.02 38.81,-0.92 14.94,-12.25 v -4.93 L 44.76,-2.31 V 0.85 L 14.94,13.96 Z"
       fill="#ffc300"
       id="path3" />
  </g>
</svg>
