<?xml version="1.0" encoding="UTF-8" standalone="no"?>
<!-- Created with Grafika (https://www.grafika.cc/) -->

<svg
   width="512"
   height="512"
   viewBox="0 0 512 512"
   preserveAspectRatio="xMidYMid"
   version="1.1"
   id="svg4"
   sodipodi:docname="Networky.svg"
   inkscape:version="1.4.4 (dcaf3e7d9e, 2026-05-05)"
   inkscape:export-filename="Networky.png"
   inkscape:export-xdpi="96"
   inkscape:export-ydpi="96"
   xmlns:inkscape="http://www.inkscape.org/namespaces/inkscape"
   xmlns:sodipodi="http://sodipodi.sourceforge.net/DTD/sodipodi-0.dtd"
   xmlns:xlink="http://www.w3.org/1999/xlink"
   xmlns="http://www.w3.org/2000/svg"
   xmlns:svg="http://www.w3.org/2000/svg">
  <sodipodi:namedview
     id="namedview4"
     pagecolor="#ffffff"
     bordercolor="#000000"
     borderopacity="0.25"
     inkscape:showpageshadow="2"
     inkscape:pageopacity="0.0"
     inkscape:pagecheckerboard="true"
     inkscape:deskcolor="#d1d1d1"
     inkscape:zoom="1.3393243"
     inkscape:cx="200.10091"
     inkscape:cy="270.65887"
     inkscape:window-width="1504"
     inkscape:window-height="926"
     inkscape:window-x="0"
     inkscape:window-y="0"
     inkscape:window-maximized="1"
     inkscape:current-layer="svg4" />
  <defs
     id="defs1">
    <filter
       id="filter_1"
       style="color-interpolation-filters:sRGB"
       primitiveUnits="userSpaceOnUse"
       x="-0.089132422"
       y="-0.51424809"
       width="1.1782648"
       height="2.0284962">
      <feGaussianBlur
         in="SourceAlpha"
         stdDeviation="9.76"
         id="feGaussianBlur1" />
      <feOffset
         dx="0"
         dy="0"
         id="feOffset1" />
      <feColorMatrix
         type="matrix"
         values="0 0 0 0 0.96 0 0 0 0 0.96 0 0 0 0 0.07 0 0 0 1 0"
         result="dropShadow_1"
         id="feColorMatrix1" />
      <feComposite
         in="SourceGraphic"
         in2="dropShadow_1"
         operator="over"
         result="Layer1"
         id="feComposite1" />
    </filter>
  </defs>
  <ellipse
     style="fill:#ffffff;stroke:#d6d6d6;stroke-width:19.2747;stroke-opacity:1"
     id="path5"
     cx="256.9407"
     cy="258.71255"
     rx="225.94426"
     ry="228.46275" />
  <line
     x1="117.97968"
     y1="194.98796"
     x2="418.1777"
     y2="314.45462"
     style="fill:none;stroke:#cac9cd;stroke-width:10.9545;stroke-linecap:round;stroke-linejoin:round"
     id="line3" />
  <line
     x1="281.23782"
     y1="308.84378"
     x2="306.66373"
     y2="361.04523"
     style="fill:none;stroke:#d4a373;stroke-width:16.4116;stroke-linecap:round;stroke-linejoin:round"
     id="line4" />
  <circle
     cx="252.5909"
     cy="247.45067"
     style="fill:#1a1a1a;stroke:#ece7c2;stroke-width:12.2112;stroke-linecap:round;stroke-linejoin:round;stroke-opacity:1"
     id="ellipse3"
     r="56.444359" />
  <g
     transform="matrix(0.32246349,0.13663671,-0.14818893,0.29732554,254.53195,245.26549)"
     style="fill:#00ff00;filter:url(#filter_1)"
     id="g4">
    <path
       d="m -131.19,28.86 v -5.19 h 6.99 V -11.5 h -6.23 v -5.19 h 11.85 v 40.36 h 6.99 v 5.19 z m 26.2,0 V 23.67 H -98 V -11.5 h -6.23 v -5.19 h 11.85 v 40.36 h 6.99 v 5.19 z m 33.38,0 -6.49,-6.49 V -10.2 l 6.49,-6.49 h 19.76 l 6.49,6.49 v 32.57 l -6.49,6.49 z m 2.54,-5.01 h 14.69 l 3.41,-3.4 V -8.28 l -3.41,-3.4 h -14.69 l -3.41,3.4 0.06,28.73 z m 38.61,5.01 -6.48,-6.49 V -10.2 l 6.48,-6.49 h 19.77 l 6.48,6.49 v 32.57 l -6.48,6.49 z m 2.54,-5.01 h 14.69 l 3.41,-3.4 V -8.28 l -3.41,-3.4 h -14.69 l -3.41,3.4 0.06,28.73 z M 3.51,28.86 V 23.67 H 10.5 V -11.5 H 4.27 v -5.19 h 11.86 v 40.36 h 6.98 v 5.19 z m 33.38,0 -6.48,-6.49 V -10.2 l 6.48,-6.49 h 19.77 l 6.48,6.49 v 32.57 l -6.48,6.49 z m 2.54,-5.01 h 14.69 l 3.41,-3.4 V -8.28 l -3.41,-3.4 H 39.43 l -3.41,3.4 0.06,28.73 z m 38.62,5.01 -6.49,-6.49 V -10.2 l 6.49,-6.49 h 19.76 l 6.49,6.49 v 32.57 l -6.49,6.49 z m 2.53,-5.01 h 14.69 l 3.41,-3.4 V -8.28 l -3.41,-3.4 H 80.58 l -3.41,3.4 0.06,28.73 z m 31.44,5.01 V 23.67 H 119 V -11.5 h -6.23 v -5.19 h 11.86 v 40.36 h 6.98 v 5.19 z"
       fill="#4FFF00B7"
       id="path4"
       style="fill:#00ff00" />
  </g>
  <use
     x="0"
     y="0"
     xlink:href="#rect2"
     id="use4"
     transform="translate(314.24428,124.22308)"
     style="display:inline" />
  <rect
     x="90.878593"
     y="171.85777"
     width="38.310219"
     height="38.310219"
     style="fill:#4d4d4d;stroke-width:0.237274"
     id="rect2" />
</svg>
