<?xml version="1.0" encoding="UTF-8" standalone="no"?>
<!-- Created with Inkscape (http://www.inkscape.org/) -->

<svg
   width="512mm"
   height="512mm"
   viewBox="0 0 512 512"
   version="1.1"
   id="svg1"
   inkscape:version="1.4.4 (dcaf3e7d9e, 2026-05-05)"
   sodipodi:docname="StainedGlass.svg"
   inkscape:export-filename="StainedGlass.png"
   inkscape:export-xdpi="96"
   inkscape:export-ydpi="96"
   xmlns:inkscape="http://www.inkscape.org/namespaces/inkscape"
   xmlns:sodipodi="http://sodipodi.sourceforge.net/DTD/sodipodi-0.dtd"
   xmlns="http://www.w3.org/2000/svg"
   xmlns:svg="http://www.w3.org/2000/svg">
  <sodipodi:namedview
     id="namedview1"
     pagecolor="#ffffff"
     bordercolor="#000000"
     borderopacity="0.25"
     inkscape:showpageshadow="2"
     inkscape:pageopacity="0.0"
     inkscape:pagecheckerboard="true"
     inkscape:deskcolor="#d1d1d1"
     inkscape:document-units="mm"
     inkscape:zoom="0.30858391"
     inkscape:cx="1022.4124"
     inkscape:cy="951.11895"
     inkscape:window-width="1504"
     inkscape:window-height="926"
     inkscape:window-x="0"
     inkscape:window-y="0"
     inkscape:window-maximized="1"
     inkscape:current-layer="layer1" />
  <defs
     id="defs1" />
  <g
     inkscape:label="Layer 1"
     inkscape:groupmode="layer"
     id="layer1">
    <circle
       style="fill:#000000;stroke:#000000;stroke-width:5.292;stroke-opacity:1;stroke-dasharray:none;stroke-miterlimit:5;fill-opacity:0"
       id="path1"
       cx="254.22244"
       cy="255.93727"
       r="236.21681" />
    <path
       style="fill:#000000;fill-opacity:0;stroke:#000000;stroke-width:5.29201;stroke-miterlimit:5;stroke-dasharray:none;stroke-opacity:1"
       d="M 192.06013,28.294573 C 322.38664,481.00773 322.38664,481.00773 322.38664,481.00773 v 0"
       id="path2" />
    <path
       style="fill:#000000;fill-opacity:0;stroke:#000000;stroke-width:5.29201;stroke-miterlimit:5;stroke-dasharray:none;stroke-opacity:1"
       d="M 321.52923,25.722339 C 194.63237,482.72258 194.63237,482.72258 194.63237,482.72258 v 0"
       id="path3" />
    <path
       style="fill:#000000;fill-opacity:0;stroke:#000000;stroke-width:5.29201;stroke-miterlimit:5;stroke-dasharray:none;stroke-opacity:1"
       d="M 192.91754,30.866807 C 84.026308,418.41671 84.026308,418.41671 84.026308,418.41671 v 0"
       id="path4" />
    <path
       style="fill:#000000;fill-opacity:0;stroke:#000000;stroke-width:5.00441;stroke-miterlimit:5;stroke-dasharray:none;stroke-opacity:1"
       d="M 195.58405,483.67791 87.107041,89.930248"
       id="path5" />
    <path
       style="fill:#000000;fill-opacity:0;stroke:#000000;stroke-width:5.29201;stroke-miterlimit:5;stroke-dasharray:none;stroke-opacity:1"
       d="M 321.52923,479.29291 426.13341,91.74301"
       id="path6" />
    <path
       style="fill:#000000;fill-opacity:0;stroke:#000000;stroke-width:5.29201;stroke-miterlimit:5;stroke-dasharray:none;stroke-opacity:1"
       d="M 324.10148,36.011276 420.98896,420.98896"
       id="path7" />
    <path
       style="fill:#7ca6d6;fill-opacity:1;stroke:none;stroke-width:64.8163;stroke-miterlimit:5;stroke-dasharray:none;stroke-opacity:1"
       d="M 287.91115,1535.3635 C 175.17035,1400.9509 106.02623,1241.1254 85.795274,1068.1762 c -6.127887,-52.3857 -6.127887,-149.32274 0,-201.70846 17.944256,-153.40077 75.625316,-299.58717 166.597066,-422.2222 24.29879,-32.75613 68.31437,-84.11141 70.34758,-82.0782 1.99545,1.99545 160.10217,577.1682 160.10674,582.44861 0.005,5.71776 -168.17653,605.70525 -171.49586,611.81145 -1.52832,2.8116 -9.18489,-4.069 -23.43965,-21.0639 z"
       id="path8"
       transform="scale(0.26458333)" />
    <path
       style="fill:#e2c371;fill-opacity:1;stroke:none;stroke-width:64.8163;stroke-miterlimit:5;stroke-dasharray:none;stroke-opacity:1"
       d="m 734.70496,1769.3729 c -1.09731,-3.5647 -52.51731,-190.068 -114.26668,-414.4518 L 508.16671,946.95045 617.71496,556.92094 C 677.96651,342.40469 728.08142,166.8914 729.08144,166.8914 c 1.00003,0 53.66145,180.16159 117.02539,400.35911 L 961.314,967.6096 851.66933,1362.01 c -60.30455,216.9203 -110.84269,398.7753 -112.30696,404.1223 -2.31031,8.4364 -2.9261,8.8649 -4.65741,3.2406 z"
       id="path9"
       transform="scale(0.26458333)" />
    <path
       style="fill:#e48362;fill-opacity:1;stroke:none;stroke-width:64.8163;stroke-miterlimit:5;stroke-dasharray:none;stroke-opacity:1"
       d="m 1214.0352,1758.0308 c -1.1116,-2.6735 -52.9026,-181.6918 -115.0911,-397.8183 L 985.87407,967.25507 1099.7042,557.47648 c 62.6066,-225.37823 114.7015,-408.74117 115.7664,-407.47321 1.065,1.26796 48.921,189.69364 106.3469,418.72373 l 104.4106,416.41835 -101.9719,377.53105 c -56.0846,207.642 -103.3732,382.635 -105.0859,388.8731 -2.0987,7.6441 -3.773,9.7573 -5.1351,6.4813 z"
       id="path10"
       transform="scale(0.26458333)" />
    <path
       style="fill:#82688b;fill-opacity:1;stroke:none;stroke-width:64.8163;stroke-miterlimit:5;stroke-dasharray:none;stroke-opacity:1"
       d="m 1525.2014,1280.886 c -40.3986,-160.875 -73.4421,-294.34278 -73.4301,-296.59501 0.023,-4.28817 161.5866,-604.13385 163.1361,-605.68332 0.4897,-0.48968 9.6933,9.64023 20.4526,22.51093 111.643,133.55275 180.2755,292.92982 200.5547,465.72463 6.0924,51.91207 6.0924,149.04547 0,200.95757 -16.3833,139.5985 -63.4764,268.3527 -140.4792,384.0753 -29.0808,43.7036 -73.6683,100.8151 -90.4092,115.8038 -6.2867,5.6287 -7.3691,1.7398 -79.8249,-286.7939 z"
       id="path11"
       transform="scale(0.26458333)" />
    <path
       style="fill:#96d9e9;fill-opacity:1;stroke:none;stroke-width:64.8163;stroke-miterlimit:5;stroke-dasharray:none;stroke-opacity:1"
       d="M 972.43874,921.69363 C 972.29803,920.65958 920.41417,739.95048 857.14126,520.11786 793.86836,300.28524 742.09962,118.73078 742.09962,116.6635 c 0,-6.27308 81.18093,-21.517222 145.82744,-27.383462 86.6478,-7.862713 177.17274,-1.35286 270.59094,19.458802 16.041,3.57362 31.1392,7.72671 33.5516,9.22911 3.5028,2.18153 -17.5741,81.9422 -104.6616,396.06718 C 983.18044,889.98481 973.02427,925.9966 972.43874,921.69363 Z"
       id="path12"
       transform="scale(0.26458333)" />
    <path
       style="fill:#becf67;fill-opacity:1;stroke:none;stroke-width:64.8163;stroke-miterlimit:5;stroke-dasharray:none;stroke-opacity:1"
       d="m 1238.1013,1771.9524 c 5.2103,-19.2421 52.0805,-192.8491 104.1558,-385.7934 52.0753,-192.9443 95.6919,-348.9797 96.9257,-346.7453 1.2338,2.2345 33.2406,127.7206 71.1262,278.858 l 68.883,274.7954 -12.6598,13.1451 c -22.0121,22.8557 -77.8947,67.3196 -119.6716,95.2186 -46.422,31.001 -113.1016,65.6312 -166.8198,86.6381 -58.211,22.764 -53.009,24.7631 -41.9395,-16.1165 z"
       id="path13"
       transform="scale(0.26458333)" />
    <path
       style="fill:#022889;fill-opacity:1;stroke:none;stroke-width:64.8163;stroke-miterlimit:5;stroke-dasharray:none;stroke-opacity:1"
       d="m 884.68645,1845.1907 c -45.19395,-3.9428 -130.21075,-18.7705 -135.15025,-23.5714 -0.36573,-0.3555 49.94474,-182.9794 111.80103,-405.831 l 112.46598,-405.1847 114.63429,398.8283 c 63.049,219.3556 114.8177,400.1792 115.0417,401.8302 0.5409,3.9866 -48.4105,16.5794 -95.0008,24.4389 -73.3861,12.38 -152.30428,15.7264 -223.79195,9.4897 z"
       id="path14"
       transform="scale(0.26458333)" />
    <path
       style="fill:#6c7352;fill-opacity:1;stroke:none;stroke-width:64.8163;stroke-miterlimit:5;stroke-dasharray:none;stroke-opacity:1"
       d="m 1337.0344,533.05787 c -55.0969,-219.22901 -99.353,-399.42124 -98.3471,-400.42718 3.1529,-3.15288 75.0598,26.5724 122.4551,50.62116 75.9742,38.54993 160.4402,99.18319 213.4897,153.252 l 20.7598,21.15865 -77.429,287.00641 c -42.586,157.8535 -78.1768,287.00203 -79.0908,286.99675 -0.9139,-0.005 -46.7409,-179.37879 -101.8377,-398.60779 z"
       id="path15"
       transform="scale(0.26458333)" />
    <path
       style="fill:#e7d2d1;fill-opacity:1;stroke:none;stroke-width:64.8163;stroke-miterlimit:5;stroke-dasharray:none;stroke-opacity:1"
       d="m 418.63255,621.38691 c -41.5047,-151.05292 -75.38768,-276.34277 -75.29551,-278.42188 0.4885,-11.01892 98.62864,-90.36886 154.51111,-124.92794 37.21934,-23.01736 98.66485,-53.90649 139.75122,-70.25403 31.259,-12.4374 75.69431,-27.15234 76.99415,-25.49695 1.34884,1.71781 -216.77364,773.74247 -218.60783,773.74247 -1.03952,0 -35.84843,-123.58875 -77.35314,-274.64167 z"
       id="path16"
       transform="scale(0.26458333)" />
    <path
       style="fill:#e49463;fill-opacity:1;stroke:none;stroke-width:64.8163;stroke-miterlimit:5;stroke-dasharray:none;stroke-opacity:1"
       d="M 688.62956,1805.1729 C 570.33515,1767.111 449.79101,1695.7814 361.47011,1611.5829 l -31.64227,-30.1654 81.81562,-291.6548 c 44.99859,-160.4102 82.74404,-292.70986 83.87878,-293.99925 1.13474,-1.28938 52.89076,182.14495 115.01339,407.63185 62.12262,225.4869 112.39893,410.4775 111.72514,411.0903 -0.67382,0.6128 -15.80786,-3.5779 -33.63121,-9.3127 z"
       id="path17"
       transform="scale(0.26458333)" />
  </g>
</svg>
